<?xml version="1.0" encoding="UTF-8" standalone="no"?>
<!-- Created with Inkscape (http://www.inkscape.org/) -->

<svg
   xmlns:dc="http://purl.org/dc/elements/1.1/"
   xmlns:cc="http://creativecommons.org/ns#"
   xmlns:rdf="http://www.w3.org/1999/02/22-rdf-syntax-ns#"
   xmlns:svg="http://www.w3.org/2000/svg"
   xmlns="http://www.w3.org/2000/svg"
   xmlns:sodipodi="http://sodipodi.sourceforge.net/DTD/sodipodi-0.dtd"
   xmlns:inkscape="http://www.inkscape.org/namespaces/inkscape"
   width="210mm"
   height="297mm"
   viewBox="0 0 210 297"
   version="1.1"
   id="svg97"
   inkscape:version="0.92.3 (2405546, 2018-03-11)"
   sodipodi:docname="text.svg">
  <defs
     id="defs91" />
  <sodipodi:namedview
     id="base"
     pagecolor="#ffffff"
     bordercolor="#666666"
     borderopacity="1.0"
     inkscape:pageopacity="0.0"
     inkscape:pageshadow="2"
     inkscape:zoom="4"
     inkscape:cx="371.40693"
     inkscape:cy="741.69652"
     inkscape:document-units="px"
     inkscape:current-layer="layer1"
     showgrid="false"
     showborder="false"
     inkscape:window-width="1366"
     inkscape:window-height="705"
     inkscape:window-x="-8"
     inkscape:window-y="-8"
     inkscape:window-maximized="1"
     inkscape:snap-global="false" />
  <metadata
     id="metadata94">
    <rdf:RDF>
      <cc:Work
         rdf:about="">
        <dc:format>image/svg+xml</dc:format>
        <dc:type
           rdf:resource="http://purl.org/dc/dcmitype/StillImage" />
        <dc:title />
      </cc:Work>
    </rdf:RDF>
  </metadata>
  <g
     inkscape:label="Layer 1"
     inkscape:groupmode="layer"
     id="layer1">
    <g
       id="g831">
      <path
         d="m 82.0529,96.650477 q -0.149861,1.111043 -0.945678,1.111043 -0.279053,0 -1.069703,-0.248046 -0.790649,-0.248047 -1.364257,-0.248047 -0.738973,0 -1.281576,0.54777 -0.537435,0.54777 -0.537435,0.956014 0,0.397908 0.496094,0.707967 0.201538,0.129191 0.201538,0.232544 0,0.139526 -0.289388,0.377238 -0.28422,0.23771 -0.428914,0.23771 -0.242879,0 -0.454753,-0.27905 -0.211873,-0.279054 -0.211873,-0.609783 0,-0.640788 0.521932,-1.395264 0.521932,-0.759643 1.364258,-1.235067 0.842325,-0.48059 1.767333,-0.48059 0.625285,0 1.183391,0.191202 0.558105,0.186036 0.697632,0.186036 0.124023,0 0.211873,-0.07235 l 0.03101,-0.01034 z m -1.937866,1.586467 q 0.201538,0 0.201538,0.129191 l -0.124023,0.687296 -0.02584,1.276409 q -0.02584,0.62528 -0.191203,1.15238 -0.149862,0.49093 -0.418579,0.89401 -0.24288,0.37207 -0.583944,0.65629 -0.315226,0.26355 -0.692464,0.44441 -0.3514,0.16537 -0.738973,0.24805 -0.356568,0.0827 -0.718303,0.0827 -0.842325,0 -1.322916,-0.36173 -0.475423,-0.3669 -0.475423,-0.70797 0,-0.19637 0.351399,-0.50643 0.356568,-0.31006 0.537435,-0.31006 0.222209,0 0.222209,0.41342 0,0.67179 0.217041,0.87333 0.222209,0.19637 0.589111,0.19637 0.594279,0 1.038696,-0.37724 0.449585,-0.37724 0.604615,-0.89917 0.155029,-0.5271 0.160197,-1.55029 0.0052,-1.023197 0.149861,-1.405603 0.149862,-0.387573 0.542603,-0.661458 0.392741,-0.273885 0.676961,-0.273885 z"
         style="font-style:normal;font-variant:normal;font-weight:bold;font-stretch:normal;font-size:medium;line-height:1.25;font-family:'Script MT Bold';-inkscape-font-specification:'Script MT Bold, Bold';font-variant-ligatures:normal;font-variant-caps:normal;font-variant-numeric:normal;font-feature-settings:normal;text-align:start;letter-spacing:0px;word-spacing:0px;writing-mode:lr-tb;text-anchor:start;fill:#5a2ca0;fill-opacity:1;stroke:none;stroke-width:0.26458332"
         id="path35"
         inkscape:connector-curvature="0" />
      <path
         d="m 85.348823,102.21603 q -0.263549,0.23254 -0.511596,0.33073 -0.248047,0.093 -0.392741,0.093 -0.37207,0 -0.738973,-0.28939 -0.744141,1.12654 -1.705322,1.12654 -0.599447,0 -0.971517,-0.44958 -0.37207,-0.44959 -0.37207,-1.19373 0,-1.17822 0.837158,-2.020545 0.837158,-0.847494 1.999878,-0.847494 0.439249,0 0.640787,0.09819 0.206706,0.09302 0.253215,0.222208 0.04651,0.129191 0.04651,0.325562 0,0.966349 -0.5271,2.371939 0.26355,0.24288 0.552938,0.24288 0.346232,0 0.888834,-0.60461 z m -1.705322,-2.888714 q -0.07751,-0.031 -0.222208,-0.031 -0.671794,0 -1.0542,0.702799 -0.377237,0.702805 -0.377237,1.643315 0,0.52193 0.165364,0.81131 0.165365,0.28939 0.45992,0.28939 0.366903,0 0.795817,-0.67695 -0.485758,-0.60978 -0.485758,-1.31258 0,-0.826832 0.718302,-1.426279 z"
         style="font-style:normal;font-variant:normal;font-weight:bold;font-stretch:normal;font-size:medium;line-height:1.25;font-family:'Script MT Bold';-inkscape-font-specification:'Script MT Bold, Bold';font-variant-ligatures:normal;font-variant-caps:normal;font-variant-numeric:normal;font-feature-settings:normal;text-align:start;letter-spacing:0px;word-spacing:0px;writing-mode:lr-tb;text-anchor:start;fill:#5a2ca0;fill-opacity:1;stroke:none;stroke-width:0.26458332"
         id="path37"
         inkscape:connector-curvature="0" />
      <path
         d="m 87.808621,99.854416 q 0.372071,-0.449585 0.7028,-0.661458 0.330729,-0.217041 0.733805,-0.217041 0.521932,0 0.847494,0.403076 0.330729,0.397908 0.330729,1.049027 0,1.14205 -0.79065,2.09807 -0.785481,0.95084 -1.710489,0.95084 -0.258383,0 -0.408244,-0.0568 -0.149862,-0.0568 -0.392741,-0.26355 -0.37207,1.63814 -0.480591,2.62516 l -1.312581,0.23255 q 0.366902,-2.41846 0.935343,-4.89893 -0.682129,0.894 -0.91984,1.10071 H 85.2248 v -0.46509 q 0.981852,-1.05937 1.617472,-2.573485 l 1.167888,-0.211874 z m -0.594279,2.764694 q 0.268718,0.44441 0.594279,0.44441 0.521932,0 0.919841,-0.79065 0.403076,-0.79581 0.403076,-1.55029 0,-0.39791 -0.165365,-0.64079 -0.160196,-0.248045 -0.418579,-0.248045 -0.201538,0 -0.423746,0.180865 -0.222209,0.18087 -0.335897,0.42375 -0.113688,0.23771 -0.258382,0.83716 z"
         style="font-style:normal;font-variant:normal;font-weight:bold;font-stretch:normal;font-size:medium;line-height:1.25;font-family:'Script MT Bold';-inkscape-font-specification:'Script MT Bold, Bold';font-variant-ligatures:normal;font-variant-caps:normal;font-variant-numeric:normal;font-feature-settings:normal;text-align:start;letter-spacing:0px;word-spacing:0px;writing-mode:lr-tb;text-anchor:start;fill:#5a2ca0;fill-opacity:1;stroke:none;stroke-width:0.26458332"
         id="path39"
         inkscape:connector-curvature="0" />
      <path
         d="m 95.8102,102.21603 q -0.826823,0.78548 -1.18339,1.02319 -0.356568,0.23771 -0.682129,0.23771 -0.816488,0 -0.769979,-1.44177 -0.516764,0.73897 -0.956014,1.09037 -0.434082,0.3514 -0.89917,0.3514 -0.454753,0 -0.775147,-0.42374 -0.315226,-0.42892 -0.315226,-1.04903 0,-0.77515 0.423747,-1.47795 0.428914,-0.7028 1.09554,-1.136882 0.666626,-0.434082 1.178223,-0.434082 0.645955,0 0.904337,0.594279 l 1.0542,-0.583944 h 0.289388 l -0.454753,1.514119 q -0.3514,1.14205 -0.3514,1.5658 0,0.44441 0.315227,0.44441 0.201538,0 0.444417,-0.21187 0.242879,-0.21704 0.682129,-0.65629 z m -3.782715,0.28422 q 0.516764,0 0.971517,-0.8785 0.45992,-0.88367 0.45992,-1.627808 0,-0.289388 -0.129191,-0.449585 -0.129191,-0.165364 -0.346232,-0.165364 -0.516764,0 -0.981852,0.878497 -0.45992,0.8785 -0.45992,1.61747 0,0.27906 0.134358,0.45476 0.139527,0.17053 0.3514,0.17053 z"
         style="font-style:normal;font-variant:normal;font-weight:bold;font-stretch:normal;font-size:medium;line-height:1.25;font-family:'Script MT Bold';-inkscape-font-specification:'Script MT Bold, Bold';font-variant-ligatures:normal;font-variant-caps:normal;font-variant-numeric:normal;font-feature-settings:normal;text-align:start;letter-spacing:0px;word-spacing:0px;writing-mode:lr-tb;text-anchor:start;fill:#5a2ca0;fill-opacity:1;stroke:none;stroke-width:0.26458332"
         id="path41"
         inkscape:connector-curvature="0" />
      <path
         d="m 100.81868,102.21603 q -0.65629,0.6873 -1.570964,1.01286 -0.428914,1.33842 -1.090373,2.06189 -0.65629,0.72347 -1.395263,0.72347 -0.403077,0 -0.651123,-0.25322 -0.248047,-0.25321 -0.248047,-0.66662 0,-0.55294 0.490926,-0.99219 0.496094,-0.43925 1.679484,-0.84749 l 0.222208,-1.01803 q -0.496093,0.5581 -0.857828,0.82165 -0.361735,0.25839 -0.728638,0.25839 -0.428914,0 -0.702799,-0.40308 -0.273885,-0.40308 -0.273885,-1.04903 0,-1.0542 0.800984,-1.97404 0.806153,-0.925009 1.71049,-0.925009 0.501261,0 0.888835,0.423747 0.232544,-0.08268 0.604616,-0.248047 l 0.366897,-0.165364 h 0.11886 q -0.201537,0.609782 -0.310057,1.188553 l -0.485761,2.58899 q 0.697628,-0.26355 1.431438,-1.13171 z m -3.327963,0.17053 q 0.366903,0 0.651123,-0.43408 0.284221,-0.43408 0.43925,-1.10071 0.160197,-0.66662 0.160197,-0.925007 0,-0.242879 -0.124023,-0.397909 -0.118856,-0.160196 -0.299724,-0.160196 -0.54777,0 -0.956014,0.738972 -0.408244,0.73897 -0.408244,1.50378 0,0.35657 0.144694,0.56845 0.149862,0.2067 0.392741,0.2067 z m 0.434082,1.32292 q -1.669148,0.59944 -1.669148,1.38493 0,0.23254 0.139526,0.37723 0.139526,0.14987 0.356567,0.14987 0.372071,0 0.645956,-0.47026 0.273885,-0.47026 0.527099,-1.44177 z"
         style="font-style:normal;font-variant:normal;font-weight:bold;font-stretch:normal;font-size:medium;line-height:1.25;font-family:'Script MT Bold';-inkscape-font-specification:'Script MT Bold, Bold';font-variant-ligatures:normal;font-variant-caps:normal;font-variant-numeric:normal;font-feature-settings:normal;text-align:start;letter-spacing:0px;word-spacing:0px;writing-mode:lr-tb;text-anchor:start;fill:#5a2ca0;fill-opacity:1;stroke:none;stroke-width:0.26458332"
         id="path43"
         inkscape:connector-curvature="0" />
      <path
         d="m 106.19513,102.08374 q -0.82683,0.78548 -1.1834,1.02319 -0.35657,0.23771 -0.68213,0.23771 -0.81649,0 -0.76998,-1.44177 -0.51677,0.73897 -0.95602,1.09037 -0.43409,0.3514 -0.89918,0.3514 -0.45475,0 -0.77515,-0.42374 -0.31523,-0.42892 -0.31523,-1.04903 0,-0.77515 0.42375,-1.47795 0.42892,-0.702802 1.09555,-1.136884 0.66663,-0.434082 1.17823,-0.434082 0.64596,0 0.90434,0.594279 l 1.0542,-0.583944 h 0.2894 l -0.45476,1.514121 q -0.3514,1.14205 -0.3514,1.5658 0,0.44441 0.31523,0.44441 0.20153,0 0.44442,-0.21187 0.24288,-0.21704 0.68213,-0.65629 z m -3.78274,0.28422 q 0.51677,0 0.97153,-0.8785 0.45992,-0.88367 0.45992,-1.62781 0,-0.289388 -0.12919,-0.449585 -0.1292,-0.165364 -0.34624,-0.165364 -0.51676,0 -0.98186,0.878499 -0.45992,0.8785 -0.45992,1.61747 0,0.27906 0.13436,0.45476 0.13953,0.17053 0.3514,0.17053 z"
         style="font-style:normal;font-variant:normal;font-weight:bold;font-stretch:normal;font-size:medium;line-height:1.25;font-family:'Script MT Bold';-inkscape-font-specification:'Script MT Bold, Bold';font-variant-ligatures:normal;font-variant-caps:normal;font-variant-numeric:normal;font-feature-settings:normal;text-align:start;letter-spacing:0px;word-spacing:0px;writing-mode:lr-tb;text-anchor:start;fill:#5a2ca0;fill-opacity:1;stroke:none;stroke-width:0.26458332"
         id="path45"
         inkscape:connector-curvature="0" />
      <path
         d="m 109.9944,102.21603 q -0.93018,0.90434 -1.61748,1.13171 l -0.31006,0.36174 q 0.6873,0.12402 0.6873,0.75964 0,0.27905 -0.1602,0.50126 -0.1602,0.22738 -0.50643,0.41341 -0.34623,0.18604 -0.69764,0.23255 -0.3514,0.0465 -0.8785,0.0465 l 0.0775,-0.40825 q 1.07488,0 1.07488,-0.62528 0,-0.45475 -0.55811,-0.47542 0.43925,-0.43409 0.63562,-0.69247 -0.031,0.0155 -0.10852,0.0155 -0.6718,0 -1.11105,-0.43408 -0.43408,-0.43925 -0.43408,-1.11104 0,-1.10071 0.80099,-2.030885 0.80615,-0.935344 1.7415,-0.935344 0.45993,0 0.74931,0.258383 0.28939,0.253214 0.28939,0.661458 0,0.144698 -0.0568,0.217038 -0.0517,0.0724 -0.20154,0.1447 l -0.59945,0.28422 q -0.10852,0.0517 -0.16019,0.0517 -0.0724,0 -0.0724,-0.10335 0,-0.0413 0.031,-0.26872 0.031,-0.232541 0.031,-0.284217 0,-0.227376 -0.0982,-0.366903 -0.093,-0.139526 -0.25322,-0.139526 -0.37724,0 -0.69247,0.558105 -0.31006,0.558101 -0.31006,1.271241 0,0.61495 0.29456,0.98185 0.29456,0.3669 0.78548,0.3669 0.41859,0 0.78549,-0.23771 0.37207,-0.24288 0.84233,-0.73897 z"
         style="font-style:normal;font-variant:normal;font-weight:bold;font-stretch:normal;font-size:medium;line-height:1.25;font-family:'Script MT Bold';-inkscape-font-specification:'Script MT Bold, Bold';font-variant-ligatures:normal;font-variant-caps:normal;font-variant-numeric:normal;font-feature-settings:normal;text-align:start;letter-spacing:0px;word-spacing:0px;writing-mode:lr-tb;text-anchor:start;fill:#5a2ca0;fill-opacity:1;stroke:none;stroke-width:0.26458332"
         id="path47"
         inkscape:connector-curvature="0" />
    </g>
    <path
       style="opacity:1;fill:#5a2ca0;fill-opacity:1;stroke-width:0.27079678"
       id="path822"
       d="m 96.613317,97.283478 c 0.717233,0.142482 1.466943,0.203735 2.189989,0.194182 1.125737,-0.07359 2.413854,-0.20191 3.533934,-0.369147 0.20802,0.252093 0.77888,0.519428 0.91675,0.490888 l -3.281977,0.508995 -0.0234,0.02339 c -1.186161,0.13828 -0.33774,-0.0042 -0.47153,0.01715 -1.122106,0.136336 -0.865367,0.157996 -1.990957,0.229549 -0.752768,0.02147 -0.585499,-0.06638 -1.197035,-0.373309 l 0.347602,-0.562612 z"
       inkscape:connector-curvature="0"
       sodipodi:nodetypes="ccccccccccc" />
  </g>
</svg>
